<mxfile host="Electron" agent="Mozilla/5.0 (Windows NT 10.0; Win64; x64) AppleWebKit/537.36 (KHTML, like Gecko) draw.io/28.0.6 Chrome/138.0.7204.100 Electron/37.2.3 Safari/537.36" version="28.0.6">
  <diagram name="Page-1" id="sqQnJ85U9etUIlwjMcoD">
    <mxGraphModel dx="1396" dy="819" grid="1" gridSize="10" guides="1" tooltips="1" connect="1" arrows="1" fold="1" page="1" pageScale="1" pageWidth="827" pageHeight="1169" math="0" shadow="0">
      <root>
        <mxCell id="0" />
        <mxCell id="1" parent="0" />
        <mxCell id="746fUZBgqtuvhZbiGi_D-8" value="Key:" style="rounded=0;whiteSpace=wrap;html=1;fillColor=#f5f5f5;align=left;verticalAlign=top;fontSize=16;fontColor=#333333;strokeColor=#666666;" vertex="1" parent="1">
          <mxGeometry x="40" y="560" width="280" height="220" as="geometry" />
        </mxCell>
        <mxCell id="8RTt505KAAiJbSRaNHEC-1" value="" style="rounded=0;whiteSpace=wrap;html=1;fillColor=#fff2cc;strokeColor=#d6b656;" parent="1" vertex="1">
          <mxGeometry x="40" y="40" width="480" height="480" as="geometry" />
        </mxCell>
        <mxCell id="746fUZBgqtuvhZbiGi_D-2" value="" style="rounded=0;whiteSpace=wrap;html=1;fillColor=#d5e8d4;strokeColor=#82b366;" vertex="1" parent="1">
          <mxGeometry x="60" y="60" width="440" height="440" as="geometry" />
        </mxCell>
        <mxCell id="746fUZBgqtuvhZbiGi_D-3" value="" style="rounded=0;whiteSpace=wrap;html=1;fillColor=#dae8fc;strokeColor=#6c8ebf;" vertex="1" parent="1">
          <mxGeometry x="60" y="60" width="210" height="210" as="geometry" />
        </mxCell>
        <mxCell id="746fUZBgqtuvhZbiGi_D-4" value="" style="rounded=0;whiteSpace=wrap;html=1;fillColor=#dae8fc;strokeColor=#6c8ebf;" vertex="1" parent="1">
          <mxGeometry x="290" y="60" width="210" height="210" as="geometry" />
        </mxCell>
        <mxCell id="746fUZBgqtuvhZbiGi_D-5" value="" style="rounded=0;whiteSpace=wrap;html=1;fillColor=#dae8fc;strokeColor=#6c8ebf;" vertex="1" parent="1">
          <mxGeometry x="290" y="290" width="210" height="210" as="geometry" />
        </mxCell>
        <mxCell id="746fUZBgqtuvhZbiGi_D-6" value="" style="rounded=0;whiteSpace=wrap;html=1;fillColor=#dae8fc;strokeColor=#6c8ebf;" vertex="1" parent="1">
          <mxGeometry x="60" y="290" width="210" height="210" as="geometry" />
        </mxCell>
        <mxCell id="746fUZBgqtuvhZbiGi_D-7" value="" style="rounded=0;whiteSpace=wrap;html=1;fillColor=#fff2cc;strokeColor=#d6b656;" vertex="1" parent="1">
          <mxGeometry x="80" y="600" width="120" height="20" as="geometry" />
        </mxCell>
        <mxCell id="746fUZBgqtuvhZbiGi_D-10" value="" style="rounded=0;whiteSpace=wrap;html=1;fillColor=#d5e8d4;strokeColor=#82b366;" vertex="1" parent="1">
          <mxGeometry x="80" y="640" width="120" height="20" as="geometry" />
        </mxCell>
        <mxCell id="746fUZBgqtuvhZbiGi_D-11" value="" style="rounded=0;whiteSpace=wrap;html=1;fillColor=#dae8fc;strokeColor=#6c8ebf;" vertex="1" parent="1">
          <mxGeometry x="80" y="680" width="120" height="80" as="geometry" />
        </mxCell>
        <mxCell id="746fUZBgqtuvhZbiGi_D-12" value="Outer Frame" style="text;html=1;align=left;verticalAlign=middle;whiteSpace=wrap;rounded=0;" vertex="1" parent="1">
          <mxGeometry x="210" y="600" width="150" height="20" as="geometry" />
        </mxCell>
        <mxCell id="746fUZBgqtuvhZbiGi_D-13" value="Inner Frame" style="text;html=1;align=left;verticalAlign=middle;whiteSpace=wrap;rounded=0;" vertex="1" parent="1">
          <mxGeometry x="210" y="640" width="150" height="20" as="geometry" />
        </mxCell>
        <mxCell id="746fUZBgqtuvhZbiGi_D-14" value="Window Pane" style="text;html=1;align=left;verticalAlign=middle;whiteSpace=wrap;rounded=0;" vertex="1" parent="1">
          <mxGeometry x="210" y="680" width="150" height="20" as="geometry" />
        </mxCell>
      </root>
    </mxGraphModel>
  </diagram>
</mxfile>
